<svg width="2425" height="777" viewBox="0 0 2425 777" fill="none" xmlns="http://www.w3.org/2000/svg">
<path d="M1588.21 104.299C1572.08 108.411 1561.96 116.635 1555.31 130.87C1549.94 142.891 1549.3 152.38 1549.3 222.605V301.37L1534.44 286.503C1525.58 277.646 1509.45 266.574 1495.53 259.931C1472.44 248.86 1470.86 248.544 1435.43 248.86C1381.02 249.176 1351.6 261.513 1316.49 298.207C1276.31 339.962 1257.02 403.544 1264.29 469.656C1268.09 503.186 1272.2 518.054 1283.91 543.043C1308.9 596.186 1352.87 628.452 1411.07 636.676C1456.94 643.003 1499.32 629.401 1530.96 598.084L1548.67 580.054L1550.89 594.605C1557.53 638.574 1623.64 650.278 1648 611.686L1655.27 599.666V370.329V140.993L1648 128.023C1643.89 121.064 1636.61 112.84 1632.18 110.309C1621.11 103.982 1601.18 101.136 1588.21 104.299ZM1497.74 346.921C1517.04 356.095 1528.11 368.431 1539.5 392.472C1546.46 407.656 1547.72 413.982 1547.72 441.503C1547.72 470.921 1547.09 474.717 1537.28 494.329C1531.27 506.982 1521.78 519.952 1513.88 526.595C1468.32 565.503 1401.26 546.839 1378.49 488.635C1367.1 460.482 1367.73 419.993 1379.75 394.054C1393.36 364.003 1411.07 348.186 1438.91 340.278C1459.78 334.584 1476.23 336.482 1497.74 346.921Z" fill="#361400"/>
<path d="M309.952 108.092C178.993 124.857 79.0341 226.714 62.9014 359.888C47.7178 484.837 124.901 612 243.207 656.286C286.861 672.735 303.942 674 469.381 674H607.08C615.587 674 622.483 667.104 622.483 658.597V626.551V589.411C622.483 583.849 618.054 579.298 612.494 579.146L587.687 578.469L571.313 578.023C563.814 577.818 559.831 569.08 564.595 563.286C580.728 543.041 605.085 490.214 612.36 458.898C621.534 420.306 623.669 392.471 621.296 356.884C619.548 330.669 601.666 316.515 575.407 317.403C574.894 317.42 574.382 317.438 573.869 317.458C547.955 318.448 533.101 337.906 531.867 363.81C531.474 372.057 531.075 380.328 530.432 387.408C524.738 452.255 507.34 492.112 468.432 528.806C432.687 562.337 390.932 579.102 342.534 579.102C253.014 579.102 177.728 517.102 157.483 427.265C153.054 406.072 153.687 367.796 159.065 346.602C172.667 292.827 212.84 241.898 259.024 220.072C305.207 198.245 354.554 194.449 398.207 209C416.238 215.327 419.164 209.793 422.011 205.048C427.211 195.514 448.966 173.448 463.303 160.054C465.775 157.744 467.325 154.616 467.609 151.246C468.019 146.383 465.752 141.683 461.692 138.977L454.039 133.874C407.222 110.15 359.932 101.766 309.952 108.092Z" fill="#FF660E"/>
<path d="M1859.32 250.437C1787.51 260.876 1726.78 318.447 1709.38 392.468C1703.05 419.355 1703.05 469.968 1709.38 494.957C1726.78 562.968 1776.44 613.58 1843.5 631.61C1868.81 638.253 1932.07 639.202 1957.38 633.192C2000.71 622.753 2045.32 593.019 2051.01 570.876C2054.17 558.855 2047.53 540.508 2036.46 530.07C2027.92 522.161 2024.12 520.58 2010.2 520.58C1996.6 520.58 1989.96 522.794 1971.61 533.865C1945.36 549.682 1922.58 555.376 1894.43 552.529C1853.31 548.733 1822.62 524.059 1810.6 485.151L1808.39 478.192L1928.59 477.243C2044.37 476.294 2049.11 475.978 2057.65 469.651C2073.15 458.263 2078.21 444.661 2076 419.355C2066.19 301.998 1977.31 233.039 1859.32 250.437ZM1926.38 337.743C1941.88 344.07 1961.81 366.529 1968.13 385.192C1977.94 413.661 1983.95 411.447 1890.95 411.447C1845.71 411.447 1808.7 410.182 1808.7 408.917C1808.7 407.335 1810.92 399.11 1813.45 390.253C1818.51 372.855 1838.44 347.866 1853.31 340.274C1875.13 328.886 1901.7 327.937 1926.38 337.743Z" fill="#361400"/>
<path d="M1044.45 254.551C1032.12 259.928 1022 272.898 1017.88 288.398C1015.67 295.989 1014.72 353.877 1015.35 448.459C1016.3 591.755 1016.62 596.816 1022.94 609.152C1035.6 633.51 1067.86 642.683 1093.8 629.081C1118.79 616.112 1120.37 610.418 1122.59 526.908C1123.85 486.734 1126.38 446.244 1128.6 436.755C1139.04 391.52 1167.19 362.734 1212.11 351.663C1242.16 344.387 1256.08 327.622 1256.08 298.836C1256.08 257.714 1218.75 238.102 1177.63 257.714C1157.7 267.204 1144.41 281.122 1130.18 307.061L1119.11 327.622V307.693C1119.11 280.806 1110.57 264.357 1092.85 256.132C1077.35 249.173 1058.37 248.54 1044.45 254.551Z" fill="#361400"/>
<path d="M2151.29 256.765C2141.8 261.51 2136.1 267.204 2131.67 276.693C2125.35 289.663 2125.03 295.357 2125.03 442.132C2125.03 605.357 2125.35 607.255 2141.48 622.438C2151.29 631.295 2173.43 636.989 2188.93 634.459C2202.85 631.928 2221.83 617.377 2227.2 604.724C2229.1 599.979 2231.63 562.653 2232.58 518.999C2235.11 434.54 2237.33 422.204 2254.41 395C2267.38 374.755 2285.73 362.102 2316.09 352.928C2330.33 348.5 2343.93 343.122 2346.78 340.908C2357.53 332.683 2365.44 315.285 2365.44 299.785C2365.44 272.265 2349.94 253.285 2325.27 251.071C2291.1 247.591 2260.1 266.571 2242.07 302.316C2231.95 321.928 2231 323.193 2230.37 314.653C2229.74 309.591 2227.84 298.204 2226.26 289.347C2219.3 255.5 2184.5 240.316 2151.29 256.765Z" fill="#361400"/>
<path d="M660.313 106.168C599.894 109.648 557.823 125.781 505.945 165.005C461.66 198.536 425.553 259.301 410.053 316.556C400.879 350.403 393.45 412.64 406.502 444.668C418.363 465.15 436.154 466.02 436.154 466.02C436.154 466.02 457.244 469.036 469.452 456.53C482.778 442.879 485.226 415.012 487.165 392.474C496.653 282.155 583.762 190.628 690.68 198.852C756.476 203.913 814.363 243.138 843.465 301.975C881.425 379.474 868.455 461.72 808.986 522.138C775.139 556.617 735.598 574.015 686.568 576.546L670.271 577.337C661.152 577.78 653.986 585.302 653.986 594.431V625.576V654.978C653.986 664.787 662.213 672.589 672.008 672.068L689.731 671.127C819.425 664.485 923.18 575.596 951.965 446.536C959.874 409.842 958.608 354.801 948.486 316.209C927.608 236.495 871.618 168.168 798.547 132.74C749.517 109.332 716.302 103.005 660.313 106.168Z" fill="#361400"/>
</svg>
