<svg xmlns="http://www.w3.org/2000/svg" xmlns:xlink="http://www.w3.org/1999/xlink" width="816" zoomAndPan="magnify" viewBox="0 0 612 791.999994" height="1056" preserveAspectRatio="xMidYMid meet" version="1.0"><defs><g/><clipPath id="6982251bc1"><path d="M 132 728 L 191.152344 728 L 191.152344 792 L 132 792 Z M 132 728 " clip-rule="nonzero"/></clipPath><clipPath id="064eb5db01"><path d="M 3 569.238281 L 56 569.238281 L 56 640 L 3 640 Z M 3 569.238281 " clip-rule="nonzero"/></clipPath><clipPath id="ca643e1608"><path d="M 438.800781 0 L 612 0 L 612 197.84375 L 438.800781 197.84375 Z M 438.800781 0 " clip-rule="nonzero"/></clipPath><clipPath id="e41f6755a4"><path d="M 124 0 L 174 0 L 174 129 L 124 129 Z M 124 0 " clip-rule="nonzero"/></clipPath><clipPath id="40e843a5d5"><path d="M 124 95 L 174 95 L 174 163 L 124 163 Z M 124 95 " clip-rule="nonzero"/></clipPath><clipPath id="582dda02b0"><path d="M 13 0 L 114 0 L 114 60 L 13 60 Z M 13 0 " clip-rule="nonzero"/></clipPath><clipPath id="8e617c19ea"><path d="M 63 0 L 114 0 L 114 60 L 63 60 Z M 63 0 " clip-rule="nonzero"/></clipPath><clipPath id="0fff2228e0"><path d="M 0.800781 0 L 55 0 L 55 55 L 0.800781 55 Z M 0.800781 0 " clip-rule="nonzero"/></clipPath><clipPath id="f63fc7db01"><path d="M 123 134 L 170 134 L 170 197.515625 L 123 197.515625 Z M 123 134 " clip-rule="nonzero"/></clipPath><clipPath id="02ebbc600e"><rect x="0" width="174" y="0" height="198"/></clipPath><clipPath id="c60b602124"><path d="M 115.125 515 L 230 515 L 230 630.699219 L 115.125 630.699219 Z M 115.125 515 " clip-rule="nonzero"/></clipPath><clipPath id="e48abbc053"><path d="M 114.375 293.949219 L 114.375 586.761719 C 114.375 611.199219 134.1875 631.011719 158.625 631.011719 L 451.4375 631.011719 C 475.875 631.011719 495.6875 611.199219 495.6875 586.761719 L 495.6875 293.949219 C 495.6875 269.511719 475.875 249.699219 451.4375 249.699219 L 158.625 249.699219 C 134.1875 249.699219 114.375 269.511719 114.375 293.949219 Z M 114.375 293.949219 " clip-rule="nonzero"/></clipPath><clipPath id="6e8178ff77"><path d="M 159.527344 250.601562 L 450.535156 250.601562 C 474.976562 250.601562 494.785156 270.414062 494.785156 294.851562 L 494.785156 585.863281 C 494.785156 610.300781 474.976562 630.113281 450.535156 630.113281 L 159.527344 630.113281 C 135.089844 630.113281 115.277344 610.300781 115.277344 585.863281 L 115.277344 294.851562 C 115.277344 270.414062 135.089844 250.601562 159.527344 250.601562 Z M 159.527344 250.601562 " clip-rule="nonzero"/></clipPath><clipPath id="2716fce7d2"><path d="M 115.125 250.449219 L 230 250.449219 L 230 366 L 115.125 366 Z M 115.125 250.449219 " clip-rule="nonzero"/></clipPath><clipPath id="b9a69c2a51"><path d="M 114.375 293.949219 L 114.375 586.761719 C 114.375 611.199219 134.1875 631.011719 158.625 631.011719 L 451.4375 631.011719 C 475.875 631.011719 495.6875 611.199219 495.6875 586.761719 L 495.6875 293.949219 C 495.6875 269.511719 475.875 249.699219 451.4375 249.699219 L 158.625 249.699219 C 134.1875 249.699219 114.375 269.511719 114.375 293.949219 Z M 114.375 293.949219 " clip-rule="nonzero"/></clipPath><clipPath id="52d1a52a15"><path d="M 159.527344 250.601562 L 450.535156 250.601562 C 474.976562 250.601562 494.785156 270.414062 494.785156 294.851562 L 494.785156 585.863281 C 494.785156 610.300781 474.976562 630.113281 450.535156 630.113281 L 159.527344 630.113281 C 135.089844 630.113281 115.277344 610.300781 115.277344 585.863281 L 115.277344 294.851562 C 115.277344 270.414062 135.089844 250.601562 159.527344 250.601562 Z M 159.527344 250.601562 " clip-rule="nonzero"/></clipPath><clipPath id="d4e6050955"><path d="M 380 250.449219 L 495 250.449219 L 495 366 L 380 366 Z M 380 250.449219 " clip-rule="nonzero"/></clipPath><clipPath id="7fc4723d03"><path d="M 114.375 293.949219 L 114.375 586.761719 C 114.375 611.199219 134.1875 631.011719 158.625 631.011719 L 451.4375 631.011719 C 475.875 631.011719 495.6875 611.199219 495.6875 586.761719 L 495.6875 293.949219 C 495.6875 269.511719 475.875 249.699219 451.4375 249.699219 L 158.625 249.699219 C 134.1875 249.699219 114.375 269.511719 114.375 293.949219 Z M 114.375 293.949219 " clip-rule="nonzero"/></clipPath><clipPath id="4a7db62d03"><path d="M 159.527344 250.601562 L 450.535156 250.601562 C 474.976562 250.601562 494.785156 270.414062 494.785156 294.851562 L 494.785156 585.863281 C 494.785156 610.300781 474.976562 630.113281 450.535156 630.113281 L 159.527344 630.113281 C 135.089844 630.113281 115.277344 610.300781 115.277344 585.863281 L 115.277344 294.851562 C 115.277344 270.414062 135.089844 250.601562 159.527344 250.601562 Z M 159.527344 250.601562 " clip-rule="nonzero"/></clipPath><clipPath id="7dba7d9f98"><path d="M 380 515 L 495 515 L 495 630.699219 L 380 630.699219 Z M 380 515 " clip-rule="nonzero"/></clipPath><clipPath id="ee5ca98d92"><path d="M 114.375 293.949219 L 114.375 586.761719 C 114.375 611.199219 134.1875 631.011719 158.625 631.011719 L 451.4375 631.011719 C 475.875 631.011719 495.6875 611.199219 495.6875 586.761719 L 495.6875 293.949219 C 495.6875 269.511719 475.875 249.699219 451.4375 249.699219 L 158.625 249.699219 C 134.1875 249.699219 114.375 269.511719 114.375 293.949219 Z M 114.375 293.949219 " clip-rule="nonzero"/></clipPath><clipPath id="fc7e08b740"><path d="M 159.527344 250.601562 L 450.535156 250.601562 C 474.976562 250.601562 494.785156 270.414062 494.785156 294.851562 L 494.785156 585.863281 C 494.785156 610.300781 474.976562 630.113281 450.535156 630.113281 L 159.527344 630.113281 C 135.089844 630.113281 115.277344 610.300781 115.277344 585.863281 L 115.277344 294.851562 C 115.277344 270.414062 135.089844 250.601562 159.527344 250.601562 Z M 159.527344 250.601562 " clip-rule="nonzero"/></clipPath><clipPath id="4333b14386"><path d="M 114.375 249.699219 L 495.375 249.699219 L 495.375 630.699219 L 114.375 630.699219 Z M 114.375 249.699219 " clip-rule="nonzero"/></clipPath><clipPath id="a114fbc3d0"><path d="M 114.375 293.949219 L 114.375 586.761719 C 114.375 611.199219 134.1875 631.011719 158.625 631.011719 L 451.4375 631.011719 C 475.875 631.011719 495.6875 611.199219 495.6875 586.761719 L 495.6875 293.949219 C 495.6875 269.511719 475.875 249.699219 451.4375 249.699219 L 158.625 249.699219 C 134.1875 249.699219 114.375 269.511719 114.375 293.949219 Z M 114.375 293.949219 " clip-rule="nonzero"/></clipPath><clipPath id="2fc52012fa"><path d="M 114.375 293.949219 L 114.375 586.757812 C 114.375 611.195312 134.1875 631.003906 158.625 631.003906 L 451.433594 631.003906 C 475.871094 631.003906 495.679688 611.195312 495.679688 586.757812 L 495.679688 293.949219 C 495.679688 269.511719 475.871094 249.699219 451.433594 249.699219 L 158.625 249.699219 C 134.1875 249.699219 114.375 269.511719 114.375 293.949219 Z M 114.375 293.949219 " clip-rule="nonzero"/></clipPath><clipPath id="a9a3d5d840"><path d="M 61.199219 88.183594 L 198.449219 88.183594 L 198.449219 225.433594 L 61.199219 225.433594 Z M 61.199219 88.183594 " clip-rule="nonzero"/></clipPath><clipPath id="10bda7b344"><path d="M 413.621094 578.378906 L 550.871094 578.378906 L 550.871094 715.628906 L 413.621094 715.628906 Z M 413.621094 578.378906 " clip-rule="nonzero"/></clipPath><clipPath id="71de31329f"><path d="M 0.621094 0.378906 L 137.800781 0.378906 L 137.800781 137.558594 L 0.621094 137.558594 Z M 0.621094 0.378906 " clip-rule="nonzero"/></clipPath><clipPath id="336473bbd2"><rect x="0" width="138" y="0" height="138"/></clipPath></defs><rect x="-61.2" width="734.4" fill="#ffffff" y="-79.199999" height="950.399992" fill-opacity="1"/><rect x="-61.2" width="734.4" fill="#ffffff" y="-79.199999" height="950.399992" fill-opacity="1"/><path fill="#9b3800" d="M -57.777344 645.46875 L 53.347656 645.46875 L 53.347656 812.402344 L -57.777344 812.402344 Z M -57.777344 645.46875 " fill-opacity="1" fill-rule="evenodd"/><path fill="#170800" d="M -57.761719 645.5 L -2.203125 608.164062 L 53.355469 645.5 L -2.203125 682.832031 Z M -57.761719 645.5 " fill-opacity="1" fill-rule="evenodd"/><path fill="#ff660e" d="M 53.347656 718.84375 L 3.804688 685.53125 L 3.804688 752.097656 Z M 53.347656 718.84375 " fill-opacity="1" fill-rule="evenodd"/><path fill="#170800" d="M 65.808594 722.492188 L 176.9375 722.492188 L 176.9375 812.402344 L 65.808594 812.402344 Z M 65.808594 722.492188 " fill-opacity="1" fill-rule="evenodd"/><path fill="#ff660e" d="M 65.871094 722.492188 L 121.375 722.492188 L 121.375 812.402344 L 65.871094 812.402344 Z M 65.871094 722.492188 " fill-opacity="1" fill-rule="evenodd"/><path fill="#9b3800" d="M 65.871094 722.492188 L 121.375 685.167969 L 176.9375 722.492188 L 121.375 759.816406 Z M 65.871094 722.492188 " fill-opacity="1" fill-rule="evenodd"/><path fill="#4d1c00" d="M 65.871094 722.492188 L 121.375 685.167969 L 121.375 759.816406 Z M 65.871094 722.492188 " fill-opacity="1" fill-rule="evenodd"/><g clip-path="url(#6982251bc1)"><path fill="#ff660e" d="M 132.011719 768.085938 L 191.160156 728.328125 L 191.160156 807.78125 Z M 132.011719 768.085938 " fill-opacity="1" fill-rule="evenodd"/></g><path fill="#4d1c00" d="M 98.636719 690.394531 L 63.988281 667.113281 L 63.988281 713.675781 Z M 98.636719 690.394531 " fill-opacity="1" fill-rule="evenodd"/><g clip-path="url(#064eb5db01)"><path fill="#ff660e" d="M 3.195312 604.253906 L 55.292969 569.238281 L 55.292969 639.269531 Z M 3.195312 604.253906 " fill-opacity="1" fill-rule="evenodd"/></g><g clip-path="url(#ca643e1608)"><g transform="matrix(1, 0, 0, 1, 438, -0.000000000000060192)"><g clip-path="url(#02ebbc600e)"><g clip-path="url(#e41f6755a4)"><path fill="#9b3800" d="M 224.730469 128.960938 L 124.796875 128.960938 L 124.796875 -21.15625 L 224.730469 -21.15625 Z M 224.730469 128.960938 " fill-opacity="1" fill-rule="evenodd"/></g><g clip-path="url(#40e843a5d5)"><path fill="#170800" d="M 224.714844 128.9375 L 174.75 162.511719 L 124.789062 128.9375 L 174.75 95.363281 Z M 224.714844 128.9375 " fill-opacity="1" fill-rule="evenodd"/></g><path fill="#ff660e" d="M 124.796875 62.976562 L 169.351562 92.9375 L 169.351562 33.074219 Z M 124.796875 62.976562 " fill-opacity="1" fill-rule="evenodd"/><g clip-path="url(#582dda02b0)"><path fill="#170800" d="M 113.589844 59.699219 L 13.65625 59.699219 L 13.65625 -21.15625 L 113.589844 -21.15625 Z M 113.589844 59.699219 " fill-opacity="1" fill-rule="evenodd"/></g><g clip-path="url(#8e617c19ea)"><path fill="#ff660e" d="M 113.535156 59.699219 L 63.621094 59.699219 L 63.621094 -21.15625 L 113.535156 -21.15625 Z M 113.535156 59.699219 " fill-opacity="1" fill-rule="evenodd"/></g><path fill="#9b3800" d="M 113.535156 59.699219 L 63.621094 93.265625 L 13.65625 59.699219 L 63.621094 26.132812 Z M 113.535156 59.699219 " fill-opacity="1" fill-rule="evenodd"/><path fill="#4d1c00" d="M 113.535156 59.699219 L 63.621094 93.265625 L 63.621094 26.132812 Z M 113.535156 59.699219 " fill-opacity="1" fill-rule="evenodd"/><g clip-path="url(#0fff2228e0)"><path fill="#ff660e" d="M 54.054688 18.695312 L 0.863281 54.449219 L 0.863281 -17 Z M 54.054688 18.695312 " fill-opacity="1" fill-rule="evenodd"/></g><path fill="#4d1c00" d="M 84.066406 88.5625 L 115.230469 109.5 L 115.230469 67.625 Z M 84.066406 88.5625 " fill-opacity="1" fill-rule="evenodd"/><g clip-path="url(#f63fc7db01)"><path fill="#ff660e" d="M 169.898438 166.027344 L 123.046875 197.515625 L 123.046875 134.539062 Z M 169.898438 166.027344 " fill-opacity="1" fill-rule="evenodd"/></g></g></g></g><g clip-path="url(#c60b602124)"><g clip-path="url(#e48abbc053)"><g clip-path="url(#6e8178ff77)"><path fill="#ffffff" d="M 126.675781 577.636719 L 126.675781 515.550781 L 114.375 515.550781 L 114.375 577.636719 C 114.375 591.894531 119.925781 605.292969 130.007812 615.375 C 140.085938 625.453125 153.492188 631.003906 167.746094 631.003906 L 229.828125 631.003906 L 229.828125 618.707031 L 167.746094 618.707031 C 145.101562 618.707031 126.675781 600.28125 126.675781 577.636719 " fill-opacity="1" fill-rule="nonzero"/></g></g></g><g clip-path="url(#2716fce7d2)"><g clip-path="url(#b9a69c2a51)"><g clip-path="url(#52d1a52a15)"><path fill="#ffffff" d="M 126.675781 303.070312 C 126.675781 280.425781 145.101562 262.003906 167.746094 262.003906 L 229.828125 262.003906 L 229.828125 249.703125 L 167.746094 249.703125 C 153.488281 249.703125 140.085938 255.253906 130.007812 265.332031 C 119.925781 275.414062 114.375 288.816406 114.375 303.070312 L 114.375 365.15625 L 126.675781 365.15625 L 126.675781 303.070312 " fill-opacity="1" fill-rule="nonzero"/></g></g></g><g clip-path="url(#d4e6050955)"><g clip-path="url(#7fc4723d03)"><g clip-path="url(#4a7db62d03)"><path fill="#ffffff" d="M 480.050781 265.332031 C 469.96875 255.253906 456.566406 249.703125 442.3125 249.703125 L 380.230469 249.703125 L 380.230469 262.003906 L 442.3125 262.003906 C 464.957031 262.003906 483.378906 280.425781 483.378906 303.070312 L 483.378906 365.15625 L 495.679688 365.15625 L 495.679688 303.070312 C 495.679688 288.816406 490.128906 275.414062 480.050781 265.332031 " fill-opacity="1" fill-rule="nonzero"/></g></g></g><g clip-path="url(#7dba7d9f98)"><g clip-path="url(#ee5ca98d92)"><g clip-path="url(#fc7e08b740)"><path fill="#ffffff" d="M 483.378906 577.636719 C 483.378906 600.28125 464.957031 618.707031 442.3125 618.707031 L 380.230469 618.707031 L 380.230469 631.003906 L 442.3125 631.003906 C 456.566406 631.003906 469.96875 625.453125 480.050781 615.375 C 490.128906 605.292969 495.679688 591.894531 495.679688 577.636719 L 495.679688 515.550781 L 483.378906 515.550781 L 483.378906 577.636719 " fill-opacity="1" fill-rule="nonzero"/></g></g></g><g clip-path="url(#4333b14386)"><g clip-path="url(#a114fbc3d0)"><g clip-path="url(#2fc52012fa)"><path stroke-linecap="butt" transform="matrix(0.75, 0, 0, 0.75, 114.376586, 249.701052)" fill="none" stroke-linejoin="miter" d="M -0.00211408 58.997562 L -0.00211408 449.409065 C -0.00211408 481.992402 26.414556 508.403863 58.997893 508.403863 L 449.409395 508.403863 C 481.992732 508.403863 508.404194 481.992402 508.404194 449.409065 L 508.404194 58.997562 C 508.404194 26.414225 481.992732 -0.00244488 449.409395 -0.00244488 L 58.997893 -0.00244488 C 26.414556 -0.00244488 -0.00211408 26.414225 -0.00211408 58.997562 Z M -0.00211408 58.997562 " stroke="#000000" stroke-width="8" stroke-opacity="1" stroke-miterlimit="4"/></g></g></g><g clip-path="url(#a9a3d5d840)"><path fill="#9b3800" d="M 65.679688 225.351562 L 61.203125 225.351562 L 61.203125 88.175781 L 198.375 88.175781 L 198.375 92.65625 L 65.679688 92.65625 Z M 65.679688 225.351562 " fill-opacity="1" fill-rule="nonzero"/></g><g clip-path="url(#10bda7b344)"><g transform="matrix(1, 0, 0, 1, 413, 578)"><g clip-path="url(#336473bbd2)"><g clip-path="url(#71de31329f)"><path fill="#9b3800" d="M 133.316406 0.390625 L 137.796875 0.390625 L 137.796875 137.566406 L 0.625 137.566406 L 0.625 133.085938 L 133.316406 133.085938 Z M 133.316406 0.390625 " fill-opacity="1" fill-rule="nonzero"/></g></g></g></g><path fill="#361400" d="M 513.472656 744.523438 C 512.75 744.707031 512.296875 745.074219 512 745.703125 C 511.757812 746.238281 511.730469 746.660156 511.730469 749.777344 L 511.730469 753.273438 L 511.0625 752.613281 C 510.664062 752.222656 509.941406 751.730469 509.320312 751.433594 C 508.28125 750.945312 508.210938 750.929688 506.625 750.945312 C 504.183594 750.957031 502.863281 751.503906 501.292969 753.136719 C 499.488281 754.988281 498.625 757.8125 498.949219 760.746094 C 499.121094 762.234375 499.304688 762.894531 499.832031 764.007812 C 500.949219 766.367188 502.921875 767.796875 505.53125 768.164062 C 507.589844 768.445312 509.488281 767.839844 510.90625 766.449219 L 511.699219 765.648438 L 511.800781 766.296875 C 512.097656 768.246094 515.0625 768.765625 516.15625 767.054688 L 516.480469 766.519531 L 516.480469 746.152344 L 516.15625 745.578125 C 515.96875 745.269531 515.644531 744.902344 515.445312 744.792969 C 514.949219 744.511719 514.054688 744.382812 513.472656 744.523438 Z M 509.417969 755.296875 C 510.28125 755.707031 510.777344 756.253906 511.289062 757.320312 C 511.601562 757.996094 511.660156 758.277344 511.660156 759.496094 C 511.660156 760.804688 511.628906 760.972656 511.191406 761.84375 C 510.921875 762.40625 510.496094 762.980469 510.140625 763.277344 C 508.097656 765.003906 505.089844 764.175781 504.070312 761.589844 C 503.558594 760.339844 503.589844 758.542969 504.128906 757.390625 C 504.738281 756.054688 505.53125 755.355469 506.78125 755.003906 C 507.714844 754.75 508.453125 754.835938 509.417969 755.296875 Z M 509.417969 755.296875 " fill-opacity="1" fill-rule="nonzero"/><path fill="#ff660e" d="M 456.164062 744.695312 C 450.289062 745.4375 445.808594 749.960938 445.085938 755.875 C 444.40625 761.421875 447.867188 767.066406 453.171875 769.035156 C 455.128906 769.765625 455.894531 769.820312 463.3125 769.820312 L 469.484375 769.820312 C 469.867188 769.820312 470.175781 769.515625 470.175781 769.136719 L 470.175781 766.066406 C 470.175781 765.816406 469.976562 765.617188 469.726562 765.609375 L 468.613281 765.578125 L 467.878906 765.558594 C 467.542969 765.550781 467.367188 765.160156 467.578125 764.90625 C 468.304688 764.003906 469.394531 761.660156 469.722656 760.269531 C 470.132812 758.554688 470.226562 757.320312 470.121094 755.738281 C 470.042969 754.578125 469.242188 753.949219 468.0625 753.988281 C 468.042969 753.988281 468.019531 753.988281 467.996094 753.988281 C 466.832031 754.035156 466.167969 754.898438 466.113281 756.046875 C 466.09375 756.414062 466.078125 756.78125 466.046875 757.09375 C 465.792969 759.976562 465.011719 761.746094 463.269531 763.375 C 461.664062 764.863281 459.792969 765.605469 457.625 765.605469 C 453.609375 765.605469 450.234375 762.855469 449.328125 758.863281 C 449.128906 757.925781 449.15625 756.226562 449.398438 755.285156 C 450.007812 752.894531 451.808594 750.632812 453.878906 749.664062 C 455.949219 748.695312 458.164062 748.527344 460.121094 749.175781 C 460.929688 749.453125 461.058594 749.210938 461.1875 749 C 461.417969 748.574219 462.394531 747.59375 463.039062 747 C 463.148438 746.898438 463.21875 746.757812 463.230469 746.609375 C 463.25 746.394531 463.148438 746.183594 462.964844 746.066406 L 462.621094 745.839844 C 460.523438 744.785156 458.402344 744.414062 456.164062 744.695312 Z M 456.164062 744.695312 " fill-opacity="1" fill-rule="nonzero"/><path fill="#361400" d="M 525.628906 751.015625 C 522.410156 751.476562 519.6875 754.035156 518.90625 757.320312 C 518.621094 758.515625 518.621094 760.761719 518.90625 761.871094 C 519.6875 764.890625 521.914062 767.136719 524.917969 767.9375 C 526.054688 768.234375 528.890625 768.277344 530.027344 768.007812 C 531.96875 767.546875 533.96875 766.226562 534.222656 765.242188 C 534.363281 764.707031 534.066406 763.894531 533.570312 763.429688 C 533.1875 763.078125 533.019531 763.007812 532.394531 763.007812 C 531.785156 763.007812 531.488281 763.105469 530.664062 763.597656 C 529.488281 764.300781 528.464844 764.554688 527.203125 764.425781 C 525.359375 764.257812 523.984375 763.164062 523.445312 761.433594 L 523.34375 761.125 L 528.734375 761.085938 C 533.925781 761.042969 534.136719 761.027344 534.519531 760.746094 C 535.214844 760.242188 535.441406 759.636719 535.34375 758.515625 C 534.902344 753.304688 530.917969 750.242188 525.628906 751.015625 Z M 528.636719 754.890625 C 529.332031 755.171875 530.222656 756.167969 530.507812 756.996094 C 530.949219 758.261719 531.21875 758.164062 527.046875 758.164062 C 525.019531 758.164062 523.359375 758.105469 523.359375 758.050781 C 523.359375 757.980469 523.460938 757.613281 523.574219 757.222656 C 523.800781 756.449219 524.691406 755.339844 525.359375 755.003906 C 526.335938 754.496094 527.527344 754.453125 528.636719 754.890625 Z M 528.636719 754.890625 " fill-opacity="1" fill-rule="nonzero"/><path fill="#361400" d="M 489.09375 751.195312 C 488.542969 751.433594 488.085938 752.011719 487.902344 752.699219 C 487.804688 753.035156 487.761719 755.605469 487.789062 759.804688 C 487.832031 766.167969 487.847656 766.394531 488.128906 766.941406 C 488.695312 768.023438 490.144531 768.429688 491.308594 767.824219 C 492.425781 767.25 492.496094 766.996094 492.597656 763.289062 C 492.652344 761.503906 492.765625 759.707031 492.867188 759.285156 C 493.335938 757.277344 494.597656 756 496.609375 755.507812 C 497.957031 755.183594 498.582031 754.441406 498.582031 753.164062 C 498.582031 751.335938 496.910156 750.464844 495.066406 751.335938 C 494.171875 751.757812 493.574219 752.375 492.9375 753.527344 L 492.441406 754.441406 L 492.441406 753.554688 C 492.441406 752.363281 492.058594 751.632812 491.265625 751.265625 C 490.570312 750.957031 489.71875 750.929688 489.09375 751.195312 Z M 489.09375 751.195312 " fill-opacity="1" fill-rule="nonzero"/><path fill="#361400" d="M 538.71875 751.292969 C 538.292969 751.503906 538.039062 751.757812 537.839844 752.179688 C 537.554688 752.753906 537.542969 753.007812 537.542969 759.523438 C 537.542969 766.773438 537.554688 766.855469 538.28125 767.53125 C 538.71875 767.925781 539.710938 768.175781 540.40625 768.066406 C 541.03125 767.953125 541.882812 767.304688 542.125 766.746094 C 542.207031 766.535156 542.320312 764.875 542.363281 762.9375 C 542.476562 759.1875 542.578125 758.640625 543.34375 757.433594 C 543.925781 756.535156 544.746094 755.972656 546.109375 755.566406 C 546.746094 755.367188 547.355469 755.128906 547.484375 755.03125 C 547.964844 754.664062 548.320312 753.894531 548.320312 753.203125 C 548.320312 751.984375 547.625 751.140625 546.519531 751.042969 C 544.988281 750.886719 543.597656 751.730469 542.789062 753.316406 C 542.335938 754.1875 542.292969 754.246094 542.265625 753.863281 C 542.238281 753.640625 542.152344 753.132812 542.082031 752.742188 C 541.769531 751.238281 540.207031 750.5625 538.71875 751.292969 Z M 538.71875 751.292969 " fill-opacity="1" fill-rule="nonzero"/><path fill="#361400" d="M 471.871094 744.609375 C 469.164062 744.761719 467.277344 745.480469 464.949219 747.21875 C 462.964844 748.710938 461.34375 751.40625 460.652344 753.949219 C 460.238281 755.453125 459.90625 758.214844 460.492188 759.636719 C 461.023438 760.546875 461.820312 760.585938 461.820312 760.585938 C 461.820312 760.585938 462.765625 760.71875 463.3125 760.164062 C 463.910156 759.558594 464.019531 758.320312 464.109375 757.320312 C 464.535156 752.421875 468.4375 748.359375 473.234375 748.722656 C 476.183594 748.949219 478.777344 750.691406 480.082031 753.300781 C 481.785156 756.742188 481.203125 760.394531 478.535156 763.078125 C 477.019531 764.609375 475.246094 765.382812 473.046875 765.492188 L 472.316406 765.527344 C 471.910156 765.546875 471.585938 765.882812 471.585938 766.289062 L 471.585938 768.976562 C 471.585938 769.410156 471.957031 769.757812 472.394531 769.734375 L 473.191406 769.691406 C 479.003906 769.398438 483.65625 765.453125 484.949219 759.722656 C 485.300781 758.089844 485.246094 755.648438 484.792969 753.933594 C 483.855469 750.394531 481.34375 747.359375 478.070312 745.789062 C 475.871094 744.75 474.382812 744.46875 471.871094 744.609375 Z M 471.871094 744.609375 " fill-opacity="1" fill-rule="nonzero"/><g fill="#ff660e" fill-opacity="1"><g transform="translate(128.932481, 191.080602)"><g><path d="M 1.765625 -12.078125 L 1.765625 -16.53125 L 9.1875 -16.53125 L 9.1875 -11.59375 C 9.1875 -10.832031 9.207031 -10.132812 9.25 -9.5 C 9.300781 -8.863281 9.367188 -8.320312 9.453125 -7.875 C 9.535156 -7.425781 9.628906 -7.0625 9.734375 -6.78125 C 9.898438 -6.40625 10.117188 -6.132812 10.390625 -5.96875 C 10.660156 -5.800781 11.019531 -5.71875 11.46875 -5.71875 C 12.332031 -5.71875 12.894531 -5.992188 13.15625 -6.546875 C 13.300781 -6.890625 13.414062 -7.367188 13.5 -7.984375 C 13.59375 -8.597656 13.640625 -9.335938 13.640625 -10.203125 C 13.640625 -11.910156 13.34375 -13.398438 12.75 -14.671875 C 12.4375 -15.304688 12.023438 -15.960938 11.515625 -16.640625 C 11.015625 -17.316406 10.421875 -18.007812 9.734375 -18.71875 L 6.5625 -22 C 5.03125 -23.570312 3.84375 -25.222656 3 -26.953125 C 2.132812 -28.691406 1.703125 -30.703125 1.703125 -32.984375 C 1.703125 -36.679688 2.425781 -39.445312 3.875 -41.28125 C 5.375 -43.15625 7.890625 -44.09375 11.421875 -44.09375 C 13.160156 -44.09375 14.648438 -43.816406 15.890625 -43.265625 C 17.128906 -42.722656 18.070312 -41.890625 18.71875 -40.765625 C 19.351562 -39.710938 19.820312 -38.425781 20.125 -36.90625 C 20.425781 -35.382812 20.578125 -33.640625 20.578125 -31.671875 L 20.578125 -28.390625 L 13.328125 -28.390625 L 13.328125 -32.078125 C 13.328125 -32.742188 13.304688 -33.359375 13.265625 -33.921875 C 13.222656 -34.484375 13.164062 -34.957031 13.09375 -35.34375 C 13.019531 -35.738281 12.9375 -36.066406 12.84375 -36.328125 C 12.695312 -36.671875 12.507812 -36.921875 12.28125 -37.078125 C 12.050781 -37.234375 11.734375 -37.3125 11.328125 -37.3125 C 10.546875 -37.3125 9.984375 -37.054688 9.640625 -36.546875 C 9.265625 -35.972656 9.078125 -35.0625 9.078125 -33.8125 C 9.078125 -33.175781 9.128906 -32.609375 9.234375 -32.109375 C 9.347656 -31.617188 9.5 -31.191406 9.6875 -30.828125 C 10.113281 -30.066406 10.90625 -29.066406 12.0625 -27.828125 L 15.59375 -24 C 16.507812 -23.019531 17.3125 -22.03125 18 -21.03125 C 18.695312 -20.03125 19.273438 -19.019531 19.734375 -18 C 20.671875 -15.945312 21.140625 -13.710938 21.140625 -11.296875 C 21.140625 -9.234375 20.960938 -7.429688 20.609375 -5.890625 C 20.265625 -4.359375 19.726562 -3.078125 19 -2.046875 C 18.257812 -0.992188 17.25 -0.207031 15.96875 0.3125 C 14.695312 0.832031 13.179688 1.09375 11.421875 1.09375 C 7.804688 1.09375 5.273438 -0.0664062 3.828125 -2.390625 C 2.453125 -4.640625 1.765625 -7.867188 1.765625 -12.078125 Z M 1.765625 -12.078125 "/></g></g></g><g fill="#ff660e" fill-opacity="1"><g transform="translate(151.023753, 191.080602)"><g><path d="M 19.625 -2.15625 C 18.03125 0.0078125 15.539062 1.09375 12.15625 1.09375 C 8.769531 1.09375 6.234375 -0.0507812 4.546875 -2.34375 C 2.898438 -4.570312 2.078125 -7.742188 2.078125 -11.859375 L 2.078125 -30.59375 C 2.078125 -37.25 3.867188 -41.429688 7.453125 -43.140625 C 8.765625 -43.753906 10.347656 -44.0625 12.203125 -44.0625 C 15.398438 -44.0625 17.8125 -43.035156 19.4375 -40.984375 C 21.0625 -38.941406 21.875 -35.957031 21.875 -32.03125 L 21.875 -25.515625 L 14.328125 -25.515625 L 14.328125 -31.609375 C 14.328125 -32.328125 14.304688 -32.984375 14.265625 -33.578125 C 14.222656 -34.171875 14.160156 -34.675781 14.078125 -35.09375 C 14.003906 -35.507812 13.914062 -35.859375 13.8125 -36.140625 C 13.664062 -36.503906 13.46875 -36.769531 13.21875 -36.9375 C 12.96875 -37.101562 12.625 -37.1875 12.1875 -37.1875 C 11.894531 -37.1875 11.640625 -37.144531 11.421875 -37.0625 C 11.210938 -36.976562 11.03125 -36.851562 10.875 -36.6875 C 10.71875 -36.53125 10.582031 -36.3125 10.46875 -36.03125 C 10.082031 -35.101562 9.890625 -33.640625 9.890625 -31.640625 L 9.890625 -11.578125 C 9.890625 -9.347656 10.078125 -7.769531 10.453125 -6.84375 C 10.609375 -6.445312 10.816406 -6.160156 11.078125 -5.984375 C 11.335938 -5.816406 11.679688 -5.734375 12.109375 -5.734375 C 12.398438 -5.734375 12.644531 -5.769531 12.84375 -5.84375 C 13.050781 -5.914062 13.226562 -6.035156 13.375 -6.203125 C 13.519531 -6.378906 13.648438 -6.597656 13.765625 -6.859375 C 13.941406 -7.316406 14.078125 -7.945312 14.171875 -8.75 C 14.273438 -9.5625 14.328125 -10.523438 14.328125 -11.640625 L 14.328125 -18.40625 L 21.96875 -18.40625 L 21.96875 -11.71875 C 21.96875 -7.4375 21.1875 -4.25 19.625 -2.15625 Z M 19.625 -2.15625 "/></g></g></g><g fill="#ff660e" fill-opacity="1"><g transform="translate(174.482, 191.080602)"><g><path d="M 14.03125 -13.53125 L 11.84375 -30.046875 L 9.8125 -13.53125 Z M 0.65625 -0.09375 L 6.78125 -43.0625 L 6.859375 -43.578125 L 16.546875 -43.578125 L 16.65625 -43.0625 L 23.171875 -0.09375 L 23.265625 0.609375 L 15.921875 0.609375 L 15.84375 0.078125 L 14.890625 -7.0625 L 9.03125 -7.0625 L 8.171875 0.078125 L 8.109375 0.609375 L 0.5625 0.609375 Z M 0.65625 -0.09375 "/></g></g></g><g fill="#ff660e" fill-opacity="1"><g transform="translate(198.306401, 191.080602)"><g><path d="M 2.609375 0 L 2.609375 -43.578125 L 8.796875 -43.578125 L 8.9375 -43.171875 L 16.671875 -21.1875 L 16.375 -28.90625 L 16.375 -43.578125 L 23.484375 -43.578125 L 23.484375 0.609375 L 17.796875 0.609375 L 17.65625 0.203125 L 9.625 -22.734375 L 9.859375 -15.40625 L 9.859375 0.609375 L 2.609375 0.609375 Z M 2.609375 0 "/></g></g></g><g fill="#ff660e" fill-opacity="1"><g transform="translate(224.400955, 191.080602)"><g/></g></g><g fill="#ff660e" fill-opacity="1"><g transform="translate(233.359515, 191.080602)"><g><path d="M 10.640625 -15.984375 C 8.867188 -13.429688 7.96875 -11.285156 7.9375 -9.546875 C 8.207031 -8.554688 8.582031 -7.75 9.0625 -7.125 C 9.550781 -6.507812 10.144531 -6.039062 10.84375 -5.71875 C 11.3125 -5.75 11.773438 -5.96875 12.234375 -6.375 C 12.472656 -6.601562 12.734375 -6.898438 13.015625 -7.265625 C 13.304688 -7.628906 13.597656 -8.039062 13.890625 -8.5 C 12.785156 -10.96875 11.703125 -13.460938 10.640625 -15.984375 Z M 7.859375 -22.828125 C 5.597656 -28.734375 4.46875 -32.914062 4.46875 -35.375 C 4.46875 -36.664062 4.65625 -37.832031 5.03125 -38.875 C 5.414062 -39.925781 5.992188 -40.859375 6.765625 -41.671875 C 7.523438 -42.472656 8.429688 -43.078125 9.484375 -43.484375 C 10.546875 -43.890625 11.738281 -44.09375 13.0625 -44.09375 C 15.726562 -44.09375 17.769531 -43.300781 19.1875 -41.71875 C 20.59375 -40.15625 21.296875 -38.082031 21.296875 -35.5 C 21.296875 -34.257812 21.164062 -33.066406 20.90625 -31.921875 C 20.644531 -30.773438 20.253906 -29.679688 19.734375 -28.640625 C 19.484375 -28.148438 19.210938 -27.648438 18.921875 -27.140625 C 18.628906 -26.640625 18.3125 -26.128906 17.96875 -25.609375 C 17.625 -25.085938 17.257812 -24.5625 16.875 -24.03125 C 16.5 -23.507812 16.09375 -22.96875 15.65625 -22.40625 C 15.957031 -21.613281 16.320312 -20.679688 16.75 -19.609375 C 17.1875 -18.535156 17.675781 -17.335938 18.21875 -16.015625 C 18.6875 -16.765625 19.144531 -17.472656 19.59375 -18.140625 C 20.039062 -18.804688 20.488281 -19.4375 20.9375 -20.03125 C 21.382812 -20.625 21.835938 -21.191406 22.296875 -21.734375 L 22.859375 -22.390625 L 23.296875 -21.65625 L 25.953125 -17.15625 L 26.171875 -16.765625 L 25.875 -16.4375 C 24.644531 -15.082031 23.132812 -12.6875 21.34375 -9.25 C 21.3125 -9.207031 21.28125 -9.160156 21.25 -9.109375 C 21.226562 -9.054688 21.207031 -9.015625 21.1875 -8.984375 C 21.476562 -8.265625 21.800781 -7.488281 22.15625 -6.65625 C 22.519531 -5.832031 22.90625 -4.941406 23.3125 -3.984375 C 24.207031 -1.929688 24.742188 -0.675781 24.921875 -0.21875 L 25.265625 0.609375 L 17.890625 0.609375 L 17.75 0.21875 C 17.664062 0.0195312 17.535156 -0.269531 17.359375 -0.65625 C 17.191406 -1.050781 16.988281 -1.523438 16.75 -2.078125 C 15.757812 -1.015625 14.6875 -0.222656 13.53125 0.296875 C 12.382812 0.828125 11.175781 1.09375 9.90625 1.09375 C 7.0625 1.09375 4.890625 0.175781 3.390625 -1.65625 C 1.910156 -3.445312 1.171875 -5.789062 1.171875 -8.6875 C 1.171875 -11.550781 1.851562 -14.113281 3.21875 -16.375 C 4.476562 -18.5 6.023438 -20.648438 7.859375 -22.828125 Z M 13.140625 -29.21875 C 13.953125 -30.375 14.554688 -31.441406 14.953125 -32.421875 C 15.347656 -33.410156 15.546875 -34.304688 15.546875 -35.109375 C 15.546875 -35.453125 15.535156 -35.769531 15.515625 -36.0625 C 15.492188 -36.351562 15.460938 -36.613281 15.421875 -36.84375 C 15.378906 -37.070312 15.332031 -37.265625 15.28125 -37.421875 C 15.226562 -37.585938 15.171875 -37.726562 15.109375 -37.84375 C 14.984375 -38.039062 14.8125 -38.191406 14.59375 -38.296875 C 14.375 -38.398438 14.078125 -38.453125 13.703125 -38.453125 C 12.992188 -38.453125 12.46875 -38.203125 12.125 -37.703125 C 11.789062 -37.210938 11.625 -36.375 11.625 -35.1875 C 11.625 -34.1875 12.128906 -32.195312 13.140625 -29.21875 Z M 13.140625 -29.21875 "/></g></g></g><g fill="#ff660e" fill-opacity="1"><g transform="translate(259.039095, 191.080602)"><g/></g></g><g fill="#ff660e" fill-opacity="1"><g transform="translate(267.997655, 191.080602)"><g><path d="M 10.421875 -6.890625 C 10.566406 -6.515625 10.773438 -6.234375 11.046875 -6.046875 C 11.328125 -5.867188 11.710938 -5.78125 12.203125 -5.78125 C 12.691406 -5.78125 13.070312 -5.867188 13.34375 -6.046875 C 13.625 -6.234375 13.835938 -6.519531 13.984375 -6.90625 C 14.328125 -7.851562 14.5 -9.53125 14.5 -11.9375 L 14.5 -31.953125 C 14.5 -33.910156 14.320312 -35.320312 13.96875 -36.1875 C 13.820312 -36.539062 13.617188 -36.796875 13.359375 -36.953125 C 13.097656 -37.117188 12.738281 -37.203125 12.28125 -37.203125 C 11.820312 -37.203125 11.453125 -37.113281 11.171875 -36.9375 C 10.898438 -36.769531 10.675781 -36.507812 10.5 -36.15625 C 10.300781 -35.75 10.148438 -35.191406 10.046875 -34.484375 C 9.941406 -33.773438 9.890625 -32.941406 9.890625 -31.984375 L 9.890625 -11.9375 C 9.890625 -9.5 10.066406 -7.816406 10.421875 -6.890625 Z M 19.921875 -2.25 C 19.109375 -1.144531 18.054688 -0.3125 16.765625 0.25 C 15.484375 0.8125 13.976562 1.09375 12.25 1.09375 C 8.738281 1.09375 6.15625 -0.0234375 4.5 -2.265625 C 2.882812 -4.453125 2.078125 -7.703125 2.078125 -12.015625 L 2.078125 -31.671875 C 2.078125 -35.722656 2.9375 -38.804688 4.65625 -40.921875 C 6.382812 -43.035156 8.941406 -44.09375 12.328125 -44.09375 C 15.859375 -44.09375 18.414062 -43.007812 20 -40.84375 C 21.53125 -38.726562 22.296875 -35.671875 22.296875 -31.671875 L 22.296875 -12.015625 C 22.296875 -9.867188 22.097656 -7.976562 21.703125 -6.34375 C 21.316406 -4.71875 20.722656 -3.351562 19.921875 -2.25 Z M 19.921875 -2.25 "/></g></g></g><g fill="#ff660e" fill-opacity="1"><g transform="translate(292.383491, 191.080602)"><g><path d="M 11.84375 -19.578125 L 10.375 -19.65625 L 10.375 0.609375 L 2.609375 0.609375 L 2.609375 -43.578125 L 14.03125 -43.578125 C 14.8125 -43.578125 15.523438 -43.523438 16.171875 -43.421875 C 16.828125 -43.316406 17.429688 -43.15625 17.984375 -42.9375 C 18.546875 -42.71875 19.035156 -42.4375 19.453125 -42.09375 C 19.703125 -41.894531 19.929688 -41.675781 20.140625 -41.4375 C 20.347656 -41.207031 20.535156 -40.960938 20.703125 -40.703125 C 20.878906 -40.441406 21.039062 -40.160156 21.1875 -39.859375 C 21.332031 -39.566406 21.457031 -39.265625 21.5625 -38.953125 C 21.675781 -38.640625 21.769531 -38.3125 21.84375 -37.96875 C 22.03125 -37.113281 22.164062 -36.148438 22.25 -35.078125 C 22.34375 -34.003906 22.390625 -32.8125 22.390625 -31.5 C 22.390625 -28.789062 22.097656 -26.722656 21.515625 -25.296875 C 21.085938 -24.234375 20.398438 -23.398438 19.453125 -22.796875 C 20.398438 -22.234375 21.101562 -21.285156 21.5625 -19.953125 C 21.863281 -19.003906 22.085938 -17.625 22.234375 -15.8125 C 22.390625 -14 22.46875 -11.691406 22.46875 -8.890625 C 22.46875 -7.617188 22.472656 -6.445312 22.484375 -5.375 C 22.503906 -4.300781 22.519531 -3.410156 22.53125 -2.703125 C 22.550781 -2.003906 22.570312 -1.4375 22.59375 -1 C 22.613281 -0.570312 22.632812 -0.3125 22.65625 -0.21875 L 23 0.609375 L 15.1875 0.609375 L 15.015625 0.265625 C 14.867188 -0.0234375 14.78125 -0.984375 14.75 -2.609375 C 14.71875 -4.234375 14.703125 -7.210938 14.703125 -11.546875 C 14.703125 -13.203125 14.703125 -14.488281 14.703125 -15.40625 C 14.703125 -16.28125 14.644531 -17.015625 14.53125 -17.609375 C 14.425781 -18.203125 14.296875 -18.613281 14.140625 -18.84375 C 13.796875 -19.300781 13.03125 -19.546875 11.84375 -19.578125 Z M 10.40625 -25.984375 L 12.40625 -25.984375 C 12.550781 -25.984375 12.6875 -25.988281 12.8125 -26 C 12.945312 -26.019531 13.0625 -26.035156 13.15625 -26.046875 C 13.257812 -26.066406 13.351562 -26.097656 13.4375 -26.140625 C 13.53125 -26.179688 13.601562 -26.21875 13.65625 -26.25 C 13.71875 -26.28125 13.769531 -26.320312 13.8125 -26.375 C 14.125 -26.644531 14.347656 -27.171875 14.484375 -27.953125 C 14.546875 -28.378906 14.597656 -28.9375 14.640625 -29.625 C 14.679688 -30.320312 14.703125 -31.125 14.703125 -32.03125 L 14.703125 -32.296875 C 14.703125 -34.523438 14.53125 -35.953125 14.1875 -36.578125 C 13.90625 -37.078125 13.179688 -37.328125 12.015625 -37.328125 L 10.40625 -37.328125 Z M 10.40625 -25.984375 "/></g></g></g><g fill="#ff660e" fill-opacity="1"><g transform="translate(317.03784, 191.080602)"><g><path d="M 10.359375 -5.6875 L 11.890625 -5.6875 C 12.878906 -5.6875 13.585938 -5.988281 14.015625 -6.59375 C 14.222656 -6.90625 14.390625 -7.394531 14.515625 -8.0625 C 14.648438 -8.738281 14.71875 -9.566406 14.71875 -10.546875 L 14.703125 -31.765625 C 14.703125 -33.878906 14.457031 -35.359375 13.96875 -36.203125 C 13.539062 -36.953125 12.773438 -37.328125 11.671875 -37.328125 L 10.359375 -37.328125 Z M 2.59375 0 L 2.59375 -43.578125 L 12.84375 -43.578125 C 16.195312 -43.578125 18.644531 -42.566406 20.1875 -40.546875 C 21.707031 -38.566406 22.46875 -35.695312 22.46875 -31.9375 L 22.484375 -12.546875 C 22.484375 -10.335938 22.300781 -8.410156 21.9375 -6.765625 C 21.570312 -5.117188 21 -3.757812 20.21875 -2.6875 C 18.664062 -0.488281 16.132812 0.609375 12.625 0.609375 L 2.59375 0.609375 Z M 2.59375 0 "/></g></g></g><g fill="#ff660e" fill-opacity="1"><g transform="translate(341.570149, 191.080602)"><g><path d="M 2.609375 0 L 2.609375 -43.578125 L 18.234375 -43.578125 L 18.234375 -36.71875 L 10.375 -36.71875 L 10.375 -25.4375 L 17.84375 -25.4375 L 17.84375 -18.703125 L 10.375 -18.703125 L 10.375 -6.25 L 18.53125 -6.25 L 18.53125 0.609375 L 2.609375 0.609375 Z M 2.609375 0 "/></g></g></g><g fill="#ff660e" fill-opacity="1"><g transform="translate(361.488911, 191.080602)"><g><path d="M 11.84375 -19.578125 L 10.375 -19.65625 L 10.375 0.609375 L 2.609375 0.609375 L 2.609375 -43.578125 L 14.03125 -43.578125 C 14.8125 -43.578125 15.523438 -43.523438 16.171875 -43.421875 C 16.828125 -43.316406 17.429688 -43.15625 17.984375 -42.9375 C 18.546875 -42.71875 19.035156 -42.4375 19.453125 -42.09375 C 19.703125 -41.894531 19.929688 -41.675781 20.140625 -41.4375 C 20.347656 -41.207031 20.535156 -40.960938 20.703125 -40.703125 C 20.878906 -40.441406 21.039062 -40.160156 21.1875 -39.859375 C 21.332031 -39.566406 21.457031 -39.265625 21.5625 -38.953125 C 21.675781 -38.640625 21.769531 -38.3125 21.84375 -37.96875 C 22.03125 -37.113281 22.164062 -36.148438 22.25 -35.078125 C 22.34375 -34.003906 22.390625 -32.8125 22.390625 -31.5 C 22.390625 -28.789062 22.097656 -26.722656 21.515625 -25.296875 C 21.085938 -24.234375 20.398438 -23.398438 19.453125 -22.796875 C 20.398438 -22.234375 21.101562 -21.285156 21.5625 -19.953125 C 21.863281 -19.003906 22.085938 -17.625 22.234375 -15.8125 C 22.390625 -14 22.46875 -11.691406 22.46875 -8.890625 C 22.46875 -7.617188 22.472656 -6.445312 22.484375 -5.375 C 22.503906 -4.300781 22.519531 -3.410156 22.53125 -2.703125 C 22.550781 -2.003906 22.570312 -1.4375 22.59375 -1 C 22.613281 -0.570312 22.632812 -0.3125 22.65625 -0.21875 L 23 0.609375 L 15.1875 0.609375 L 15.015625 0.265625 C 14.867188 -0.0234375 14.78125 -0.984375 14.75 -2.609375 C 14.71875 -4.234375 14.703125 -7.210938 14.703125 -11.546875 C 14.703125 -13.203125 14.703125 -14.488281 14.703125 -15.40625 C 14.703125 -16.28125 14.644531 -17.015625 14.53125 -17.609375 C 14.425781 -18.203125 14.296875 -18.613281 14.140625 -18.84375 C 13.796875 -19.300781 13.03125 -19.546875 11.84375 -19.578125 Z M 10.40625 -25.984375 L 12.40625 -25.984375 C 12.550781 -25.984375 12.6875 -25.988281 12.8125 -26 C 12.945312 -26.019531 13.0625 -26.035156 13.15625 -26.046875 C 13.257812 -26.066406 13.351562 -26.097656 13.4375 -26.140625 C 13.53125 -26.179688 13.601562 -26.21875 13.65625 -26.25 C 13.71875 -26.28125 13.769531 -26.320312 13.8125 -26.375 C 14.125 -26.644531 14.347656 -27.171875 14.484375 -27.953125 C 14.546875 -28.378906 14.597656 -28.9375 14.640625 -29.625 C 14.679688 -30.320312 14.703125 -31.125 14.703125 -32.03125 L 14.703125 -32.296875 C 14.703125 -34.523438 14.53125 -35.953125 14.1875 -36.578125 C 13.90625 -37.078125 13.179688 -37.328125 12.015625 -37.328125 L 10.40625 -37.328125 Z M 10.40625 -25.984375 "/></g></g></g><g fill="#ff660e" fill-opacity="1"><g transform="translate(386.143237, 191.080602)"><g/></g></g><g fill="#ff660e" fill-opacity="1"><g transform="translate(395.101809, 191.080602)"><g><path d="M 2.609375 0 L 2.609375 -43.578125 L 10.375 -43.578125 L 10.375 -26.203125 L 15.015625 -26.203125 L 15.015625 -43.578125 L 22.78125 -43.578125 L 22.78125 0.609375 L 15.015625 0.609375 L 15.015625 -19.359375 L 10.375 -19.359375 L 10.375 0.609375 L 2.609375 0.609375 Z M 2.609375 0 "/></g></g></g><g fill="#ff660e" fill-opacity="1"><g transform="translate(420.488466, 191.080602)"><g><path d="M 2.609375 0 L 2.609375 -43.578125 L 18.234375 -43.578125 L 18.234375 -36.71875 L 10.375 -36.71875 L 10.375 -25.4375 L 17.84375 -25.4375 L 17.84375 -18.703125 L 10.375 -18.703125 L 10.375 -6.25 L 18.53125 -6.25 L 18.53125 0.609375 L 2.609375 0.609375 Z M 2.609375 0 "/></g></g></g><g fill="#ff660e" fill-opacity="1"><g transform="translate(440.407227, 191.080602)"><g><path d="M 11.84375 -19.578125 L 10.375 -19.65625 L 10.375 0.609375 L 2.609375 0.609375 L 2.609375 -43.578125 L 14.03125 -43.578125 C 14.8125 -43.578125 15.523438 -43.523438 16.171875 -43.421875 C 16.828125 -43.316406 17.429688 -43.15625 17.984375 -42.9375 C 18.546875 -42.71875 19.035156 -42.4375 19.453125 -42.09375 C 19.703125 -41.894531 19.929688 -41.675781 20.140625 -41.4375 C 20.347656 -41.207031 20.535156 -40.960938 20.703125 -40.703125 C 20.878906 -40.441406 21.039062 -40.160156 21.1875 -39.859375 C 21.332031 -39.566406 21.457031 -39.265625 21.5625 -38.953125 C 21.675781 -38.640625 21.769531 -38.3125 21.84375 -37.96875 C 22.03125 -37.113281 22.164062 -36.148438 22.25 -35.078125 C 22.34375 -34.003906 22.390625 -32.8125 22.390625 -31.5 C 22.390625 -28.789062 22.097656 -26.722656 21.515625 -25.296875 C 21.085938 -24.234375 20.398438 -23.398438 19.453125 -22.796875 C 20.398438 -22.234375 21.101562 -21.285156 21.5625 -19.953125 C 21.863281 -19.003906 22.085938 -17.625 22.234375 -15.8125 C 22.390625 -14 22.46875 -11.691406 22.46875 -8.890625 C 22.46875 -7.617188 22.472656 -6.445312 22.484375 -5.375 C 22.503906 -4.300781 22.519531 -3.410156 22.53125 -2.703125 C 22.550781 -2.003906 22.570312 -1.4375 22.59375 -1 C 22.613281 -0.570312 22.632812 -0.3125 22.65625 -0.21875 L 23 0.609375 L 15.1875 0.609375 L 15.015625 0.265625 C 14.867188 -0.0234375 14.78125 -0.984375 14.75 -2.609375 C 14.71875 -4.234375 14.703125 -7.210938 14.703125 -11.546875 C 14.703125 -13.203125 14.703125 -14.488281 14.703125 -15.40625 C 14.703125 -16.28125 14.644531 -17.015625 14.53125 -17.609375 C 14.425781 -18.203125 14.296875 -18.613281 14.140625 -18.84375 C 13.796875 -19.300781 13.03125 -19.546875 11.84375 -19.578125 Z M 10.40625 -25.984375 L 12.40625 -25.984375 C 12.550781 -25.984375 12.6875 -25.988281 12.8125 -26 C 12.945312 -26.019531 13.0625 -26.035156 13.15625 -26.046875 C 13.257812 -26.066406 13.351562 -26.097656 13.4375 -26.140625 C 13.53125 -26.179688 13.601562 -26.21875 13.65625 -26.25 C 13.71875 -26.28125 13.769531 -26.320312 13.8125 -26.375 C 14.125 -26.644531 14.347656 -27.171875 14.484375 -27.953125 C 14.546875 -28.378906 14.597656 -28.9375 14.640625 -29.625 C 14.679688 -30.320312 14.703125 -31.125 14.703125 -32.03125 L 14.703125 -32.296875 C 14.703125 -34.523438 14.53125 -35.953125 14.1875 -36.578125 C 13.90625 -37.078125 13.179688 -37.328125 12.015625 -37.328125 L 10.40625 -37.328125 Z M 10.40625 -25.984375 "/></g></g></g><g fill="#ff660e" fill-opacity="1"><g transform="translate(465.061576, 191.080602)"><g><path d="M 2.609375 0 L 2.609375 -43.578125 L 18.234375 -43.578125 L 18.234375 -36.71875 L 10.375 -36.71875 L 10.375 -25.4375 L 17.84375 -25.4375 L 17.84375 -18.703125 L 10.375 -18.703125 L 10.375 -6.25 L 18.53125 -6.25 L 18.53125 0.609375 L 2.609375 0.609375 Z M 2.609375 0 "/></g></g></g><g fill="#000000" fill-opacity="1"><g transform="translate(363.46516, 761.786046)"><g><path d="M 4.359375 -8.5625 C 4.953125 -8.5625 5.457031 -8.457031 5.875 -8.25 C 6.300781 -8.039062 6.625 -7.738281 6.84375 -7.34375 C 7.0625 -6.945312 7.171875 -6.484375 7.171875 -5.953125 C 7.171875 -5.421875 7.0625 -4.957031 6.84375 -4.5625 C 6.625 -4.175781 6.300781 -3.878906 5.875 -3.671875 C 5.457031 -3.460938 4.953125 -3.359375 4.359375 -3.359375 L 2.296875 -3.359375 L 2.296875 0 L 1.296875 0 L 1.296875 -8.5625 Z M 4.328125 -4.21875 C 5.523438 -4.21875 6.125 -4.796875 6.125 -5.953125 C 6.125 -7.128906 5.523438 -7.71875 4.328125 -7.71875 L 2.296875 -7.71875 L 2.296875 -4.21875 Z M 4.328125 -4.21875 "/></g></g></g><g fill="#000000" fill-opacity="1"><g transform="translate(370.935862, 761.786046)"><g><path d="M 3.703125 0.125 C 3.097656 0.125 2.566406 -0.00390625 2.109375 -0.265625 C 1.660156 -0.523438 1.3125 -0.90625 1.0625 -1.40625 C 0.820312 -1.90625 0.703125 -2.515625 0.703125 -3.234375 C 0.703125 -3.941406 0.820312 -4.546875 1.0625 -5.046875 C 1.3125 -5.554688 1.660156 -5.941406 2.109375 -6.203125 C 2.566406 -6.460938 3.097656 -6.59375 3.703125 -6.59375 C 4.316406 -6.59375 4.847656 -6.460938 5.296875 -6.203125 C 5.753906 -5.941406 6.101562 -5.554688 6.34375 -5.046875 C 6.582031 -4.546875 6.703125 -3.941406 6.703125 -3.234375 C 6.703125 -2.515625 6.582031 -1.90625 6.34375 -1.40625 C 6.101562 -0.90625 5.753906 -0.523438 5.296875 -0.265625 C 4.847656 -0.00390625 4.316406 0.125 3.703125 0.125 Z M 3.703125 -0.734375 C 4.347656 -0.734375 4.84375 -0.9375 5.1875 -1.34375 C 5.53125 -1.75 5.703125 -2.378906 5.703125 -3.234375 C 5.703125 -4.085938 5.53125 -4.71875 5.1875 -5.125 C 4.84375 -5.53125 4.347656 -5.734375 3.703125 -5.734375 C 3.066406 -5.734375 2.578125 -5.523438 2.234375 -5.109375 C 1.890625 -4.703125 1.71875 -4.078125 1.71875 -3.234375 C 1.71875 -2.378906 1.890625 -1.75 2.234375 -1.34375 C 2.578125 -0.9375 3.066406 -0.734375 3.703125 -0.734375 Z M 3.703125 -0.734375 "/></g></g></g><g fill="#000000" fill-opacity="1"><g transform="translate(378.306956, 761.786046)"><g><path d="M 3.203125 0 L 2 0 L 0.421875 -6.46875 L 1.359375 -6.46875 L 2.578125 -1.109375 L 2.703125 -1.109375 L 4.21875 -6.46875 L 5.21875 -6.46875 L 6.765625 -1.109375 L 6.890625 -1.109375 L 8.09375 -6.46875 L 9 -6.46875 L 7.4375 0 L 6.234375 0 L 4.75 -5.015625 L 4.625 -5.015625 Z M 3.203125 0 "/></g></g></g><g fill="#000000" fill-opacity="1"><g transform="translate(387.681955, 761.786046)"><g><path d="M 6.15625 -3.015625 L 1.71875 -3.015625 C 1.75 -2.222656 1.9375 -1.644531 2.28125 -1.28125 C 2.632812 -0.914062 3.113281 -0.734375 3.71875 -0.734375 C 4.175781 -0.734375 4.546875 -0.8125 4.828125 -0.96875 C 5.109375 -1.132812 5.332031 -1.394531 5.5 -1.75 L 5.625 -1.75 L 6.234375 -1.390625 C 6.046875 -0.921875 5.742188 -0.550781 5.328125 -0.28125 C 4.921875 -0.0078125 4.382812 0.125 3.71875 0.125 C 3.09375 0.125 2.554688 0.00390625 2.109375 -0.234375 C 1.660156 -0.484375 1.3125 -0.859375 1.0625 -1.359375 C 0.820312 -1.859375 0.703125 -2.484375 0.703125 -3.234375 C 0.703125 -3.960938 0.832031 -4.578125 1.09375 -5.078125 C 1.351562 -5.585938 1.703125 -5.96875 2.140625 -6.21875 C 2.585938 -6.46875 3.09375 -6.59375 3.65625 -6.59375 C 4.488281 -6.59375 5.132812 -6.359375 5.59375 -5.890625 C 6.0625 -5.421875 6.300781 -4.726562 6.3125 -3.8125 C 6.3125 -3.445312 6.300781 -3.203125 6.28125 -3.078125 Z M 5.359375 -3.8125 C 5.347656 -4.5 5.195312 -5 4.90625 -5.3125 C 4.613281 -5.625 4.195312 -5.78125 3.65625 -5.78125 C 3.09375 -5.78125 2.648438 -5.617188 2.328125 -5.296875 C 2.003906 -4.984375 1.804688 -4.488281 1.734375 -3.8125 Z M 5.359375 -3.8125 "/></g></g><g transform="translate(394.57258, 761.786046)"><g><path d="M 1.125 0 L 1.125 -6.46875 L 2.03125 -6.46875 L 2.03125 -5.453125 L 2.15625 -5.421875 C 2.457031 -6.148438 3.023438 -6.515625 3.859375 -6.515625 C 4.296875 -6.515625 4.625 -6.4375 4.84375 -6.28125 L 4.59375 -5.46875 L 4.484375 -5.453125 C 4.242188 -5.566406 3.976562 -5.625 3.6875 -5.625 C 3.164062 -5.625 2.765625 -5.429688 2.484375 -5.046875 C 2.210938 -4.660156 2.078125 -4.035156 2.078125 -3.171875 L 2.078125 0 Z M 1.125 0 "/></g></g></g><g fill="#000000" fill-opacity="1"><g transform="translate(399.394845, 761.786046)"><g><path d="M 6.15625 -3.015625 L 1.71875 -3.015625 C 1.75 -2.222656 1.9375 -1.644531 2.28125 -1.28125 C 2.632812 -0.914062 3.113281 -0.734375 3.71875 -0.734375 C 4.175781 -0.734375 4.546875 -0.8125 4.828125 -0.96875 C 5.109375 -1.132812 5.332031 -1.394531 5.5 -1.75 L 5.625 -1.75 L 6.234375 -1.390625 C 6.046875 -0.921875 5.742188 -0.550781 5.328125 -0.28125 C 4.921875 -0.0078125 4.382812 0.125 3.71875 0.125 C 3.09375 0.125 2.554688 0.00390625 2.109375 -0.234375 C 1.660156 -0.484375 1.3125 -0.859375 1.0625 -1.359375 C 0.820312 -1.859375 0.703125 -2.484375 0.703125 -3.234375 C 0.703125 -3.960938 0.832031 -4.578125 1.09375 -5.078125 C 1.351562 -5.585938 1.703125 -5.96875 2.140625 -6.21875 C 2.585938 -6.46875 3.09375 -6.59375 3.65625 -6.59375 C 4.488281 -6.59375 5.132812 -6.359375 5.59375 -5.890625 C 6.0625 -5.421875 6.300781 -4.726562 6.3125 -3.8125 C 6.3125 -3.445312 6.300781 -3.203125 6.28125 -3.078125 Z M 5.359375 -3.8125 C 5.347656 -4.5 5.195312 -5 4.90625 -5.3125 C 4.613281 -5.625 4.195312 -5.78125 3.65625 -5.78125 C 3.09375 -5.78125 2.648438 -5.617188 2.328125 -5.296875 C 2.003906 -4.984375 1.804688 -4.488281 1.734375 -3.8125 Z M 5.359375 -3.8125 "/></g></g><g transform="translate(406.28547, 761.786046)"><g><path d="M 3.359375 0.125 C 2.835938 0.125 2.378906 0 1.984375 -0.25 C 1.585938 -0.5 1.273438 -0.875 1.046875 -1.375 C 0.816406 -1.875 0.703125 -2.492188 0.703125 -3.234375 C 0.703125 -3.972656 0.816406 -4.59375 1.046875 -5.09375 C 1.285156 -5.59375 1.613281 -5.96875 2.03125 -6.21875 C 2.445312 -6.46875 2.925781 -6.59375 3.46875 -6.59375 C 3.894531 -6.59375 4.28125 -6.507812 4.625 -6.34375 C 4.96875 -6.175781 5.265625 -5.910156 5.515625 -5.546875 L 5.625 -5.5625 L 5.625 -9.0625 L 6.59375 -9.0625 L 6.59375 0 L 5.625 0 L 5.625 -0.9375 L 5.515625 -0.96875 C 5.296875 -0.644531 5.003906 -0.378906 4.640625 -0.171875 C 4.285156 0.0234375 3.859375 0.125 3.359375 0.125 Z M 3.65625 -0.734375 C 4.25 -0.734375 4.722656 -0.9375 5.078125 -1.34375 C 5.441406 -1.757812 5.625 -2.390625 5.625 -3.234375 C 5.625 -4.078125 5.441406 -4.703125 5.078125 -5.109375 C 4.722656 -5.523438 4.25 -5.734375 3.65625 -5.734375 C 3.03125 -5.734375 2.550781 -5.53125 2.21875 -5.125 C 1.882812 -4.726562 1.71875 -4.097656 1.71875 -3.234375 C 1.71875 -1.566406 2.363281 -0.734375 3.65625 -0.734375 Z M 3.65625 -0.734375 "/></g></g><g transform="translate(414.002267, 761.786046)"><g/></g><g transform="translate(416.943673, 761.786046)"><g><path d="M 4.296875 0.125 C 3.816406 0.125 3.398438 0.03125 3.046875 -0.15625 C 2.691406 -0.34375 2.410156 -0.585938 2.203125 -0.890625 L 2.078125 -0.875 L 2.078125 0 L 1.125 0 L 1.125 -9.0625 L 2.078125 -9.0625 L 2.078125 -5.5 L 2.203125 -5.46875 C 2.691406 -6.21875 3.40625 -6.59375 4.34375 -6.59375 C 4.875 -6.59375 5.335938 -6.46875 5.734375 -6.21875 C 6.140625 -5.96875 6.453125 -5.59375 6.671875 -5.09375 C 6.890625 -4.59375 7 -3.972656 7 -3.234375 C 7 -2.492188 6.882812 -1.875 6.65625 -1.375 C 6.425781 -0.875 6.109375 -0.5 5.703125 -0.25 C 5.296875 0 4.828125 0.125 4.296875 0.125 Z M 4.0625 -0.734375 C 5.351562 -0.734375 6 -1.566406 6 -3.234375 C 6 -4.097656 5.832031 -4.726562 5.5 -5.125 C 5.164062 -5.53125 4.6875 -5.734375 4.0625 -5.734375 C 3.457031 -5.734375 2.972656 -5.523438 2.609375 -5.109375 C 2.253906 -4.703125 2.078125 -4.078125 2.078125 -3.234375 C 2.078125 -2.390625 2.253906 -1.757812 2.609375 -1.34375 C 2.972656 -0.9375 3.457031 -0.734375 4.0625 -0.734375 Z M 4.0625 -0.734375 "/></g></g></g><g fill="#000000" fill-opacity="1"><g transform="translate(424.531563, 761.786046)"><g><path d="M 1.296875 2.75 C 1.078125 2.75 0.875 2.726562 0.6875 2.6875 C 0.5 2.644531 0.332031 2.59375 0.1875 2.53125 L 0.375 1.78125 L 0.46875 1.734375 C 0.5625 1.785156 0.675781 1.828125 0.8125 1.859375 C 0.957031 1.890625 1.109375 1.90625 1.265625 1.90625 C 1.523438 1.90625 1.738281 1.867188 1.90625 1.796875 C 2.082031 1.734375 2.226562 1.617188 2.34375 1.453125 C 2.46875 1.296875 2.585938 1.070312 2.703125 0.78125 L 2.921875 0.15625 L 0.328125 -6.46875 L 1.359375 -6.46875 L 3.390625 -1.1875 L 3.5 -1.1875 L 5.46875 -6.46875 L 6.453125 -6.46875 L 3.5625 1.015625 C 3.394531 1.429688 3.207031 1.765625 3 2.015625 C 2.800781 2.265625 2.5625 2.445312 2.28125 2.5625 C 2.007812 2.6875 1.679688 2.75 1.296875 2.75 Z M 1.296875 2.75 "/></g></g><g transform="translate(431.346016, 761.786046)"><g/></g><g transform="translate(434.287422, 761.786046)"><g><path d="M 3.9375 -3.734375 L 0.609375 -3.734375 L 0.609375 -4.59375 L 3.9375 -4.59375 Z M 3.9375 -3.734375 "/></g></g></g></svg>