<svg width="1389" height="1389" viewBox="0 0 1389 1389" fill="none" xmlns="http://www.w3.org/2000/svg">
<path d="M498.672 419.535C370.643 435.926 272.92 535.504 257.148 665.698C242.304 787.852 317.761 912.17 433.42 955.465C476.097 971.546 492.796 972.783 654.534 972.783H789.152C797.469 972.783 804.211 966.041 804.211 957.725V926.396V890.086C804.211 884.649 799.881 880.199 794.445 880.051L770.193 879.39L754.185 878.953C746.855 878.753 742.961 870.21 747.618 864.546C763.39 844.754 787.202 793.109 794.315 762.493C803.283 724.765 805.37 697.552 803.051 662.762C801.342 637.133 783.859 623.296 758.188 624.163C757.687 624.18 757.186 624.198 756.685 624.217C731.35 625.186 716.829 644.208 715.622 669.532C715.237 677.595 714.848 685.681 714.219 692.603C708.653 755.999 691.644 794.965 653.606 830.838C618.661 863.618 577.84 880.008 530.525 880.008C443.007 880.008 369.406 819.395 349.614 731.568C345.284 710.849 345.903 673.429 351.16 652.71C364.458 600.137 403.732 550.348 448.883 529.01C494.033 507.672 542.276 503.961 584.953 518.186C602.58 524.371 605.44 518.961 608.223 514.322C613.307 505.002 634.576 483.429 648.592 470.334C651.009 468.077 652.524 465.019 652.801 461.723C653.202 456.97 650.986 452.375 647.017 449.729L639.535 444.741C593.766 421.547 547.534 413.35 498.672 419.535Z" fill="#FF660E"/>
<path d="M841.196 417.653C782.129 421.054 740.999 436.826 690.282 475.173C646.987 507.953 611.688 567.359 596.535 623.333C587.566 656.423 580.303 717.268 593.064 748.579C604.659 768.603 622.052 769.454 622.052 769.454C622.052 769.454 642.67 772.403 654.605 760.176C667.633 746.831 670.027 719.587 671.922 697.553C681.198 589.702 766.358 500.222 870.884 508.263C935.208 513.211 991.8 551.558 1020.25 609.078C1057.36 684.844 1044.68 765.25 986.543 824.316C953.453 858.024 914.797 875.033 866.864 877.507L850.931 878.28C842.017 878.713 835.011 886.067 835.011 894.992V925.441V954.185C835.011 963.774 843.054 971.401 852.63 970.893L869.956 969.973C996.748 963.478 1098.18 876.579 1126.32 750.405C1134.06 714.532 1132.82 660.723 1122.92 622.994C1102.51 545.064 1047.77 478.265 976.338 443.629C928.404 420.745 895.933 414.56 841.196 417.653Z" fill="#361400"/>
</svg>
